# xmcd
#
# Track frame offsets: 
#        150
#        11211
#        23606
#        35703
#        48295
#        60465
#        82986
#        95771
#        111373
#        125646
#        138878
#        153141
#        162989
#        176367
#        187912
#        198773
#        210430
#        223413
#        236417
#        246747
#
# Disc length: 3441 seconds
#
# Revision: 0
# Processed by: cddbd v1.5.2PL0 Copyright (c) Steve Scherf et al.
# Submitted via: ExactAudioCopy v1.3
#
DISCID=120d6f14
DTITLE=Various Artist - Bluesology [Disc 3]
DYEAR=2016
DGENRE=Blues
TTITLE0=Screamin' Jay Hawkins - I Put A Spell On You
TTITLE1=Bo Diddley - I'm A Man
TTITLE2=Muddy Waters - Got My Mojo Working
TTITLE3=Jimmy Reed - Big Boss Man
TTITLE4=Howlin' Wolf - Spoonful
TTITLE5=B.B. King - Everyday I Have The Blues
TTITLE6=Jimmy Witherspoon - When The Lights Go Out
TTITLE7=Big Bill Broonzy - Water Coast
TTITLE8=Champion Jack Dupree - Nasty Boogie
TTITLE9=Buddy Guy - Stone Crazy
TTITLE10=Lowell Fulson - Reconsider Baby
TTITLE11=Chuck Berry - Worried Life Blues
TTITLE12=Blind Lemon Jefferson - The Black Snake Moan
TTITLE13=Sonny Boy Williamson - Don't Start Me Talking
TTITLE14=Elmore James - Look On Yonder Wall
TTITLE15=Junior Wells - Little By Little
TTITLE16=Robert Johnson - Preaching Blues (Up Jumped The Devil)
TTITLE17=Albert King - Dyna Flow
TTITLE18=Leadbelly - Leaving Blues
TTITLE19=John Lee Hooker - Baby I'm Gonna Miss You
EXTD=
EXTT0=
EXTT1=
EXTT2=
EXTT3=
EXTT4=
EXTT5=
EXTT6=
EXTT7=
EXTT8=
EXTT9=
EXTT10=
EXTT11=
EXTT12=
EXTT13=
EXTT14=
EXTT15=
EXTT16=
EXTT17=
EXTT18=
EXTT19=
PLAYORDER=
